<mxfile host="app.diagrams.net" agent="Mozilla/5.0 (Windows NT 10.0; Win64; x64) AppleWebKit/537.36 (KHTML, like Gecko) Chrome/135.0.0.0 Safari/537.36" version="26.2.9">
  <diagram name="Page-1" id="1DorGgeGCGAp8iKHubtV">
    <mxGraphModel dx="2068" dy="1103" grid="1" gridSize="10" guides="1" tooltips="1" connect="1" arrows="1" fold="1" page="1" pageScale="1" pageWidth="850" pageHeight="1100" math="0" shadow="0">
      <root>
        <mxCell id="0" />
        <mxCell id="1" parent="0" />
        <mxCell id="0K9RgCL--q_GSFUfKGMx-1" value="Dashboard" style="shape=card;whiteSpace=wrap;html=1;" vertex="1" parent="1">
          <mxGeometry x="400" y="720" width="80" height="100" as="geometry" />
        </mxCell>
        <mxCell id="0K9RgCL--q_GSFUfKGMx-8" style="edgeStyle=orthogonalEdgeStyle;rounded=0;orthogonalLoop=1;jettySize=auto;html=1;exitX=1;exitY=0;exitDx=0;exitDy=0;exitPerimeter=0;" edge="1" parent="1" source="0K9RgCL--q_GSFUfKGMx-2" target="0K9RgCL--q_GSFUfKGMx-5">
          <mxGeometry relative="1" as="geometry" />
        </mxCell>
        <mxCell id="0K9RgCL--q_GSFUfKGMx-2" value="Homepage" style="shape=card;whiteSpace=wrap;html=1;" vertex="1" parent="1">
          <mxGeometry x="400" y="990" width="80" height="100" as="geometry" />
        </mxCell>
        <mxCell id="0K9RgCL--q_GSFUfKGMx-4" value="Sign Up" style="shape=card;whiteSpace=wrap;html=1;" vertex="1" parent="1">
          <mxGeometry x="340" y="850" width="80" height="100" as="geometry" />
        </mxCell>
        <mxCell id="0K9RgCL--q_GSFUfKGMx-5" value="Sign In" style="shape=card;whiteSpace=wrap;html=1;" vertex="1" parent="1">
          <mxGeometry x="460" y="850" width="80" height="100" as="geometry" />
        </mxCell>
        <mxCell id="0K9RgCL--q_GSFUfKGMx-6" style="edgeStyle=orthogonalEdgeStyle;rounded=0;orthogonalLoop=1;jettySize=auto;html=1;exitX=1;exitY=0;exitDx=0;exitDy=0;exitPerimeter=0;entryX=0;entryY=1;entryDx=0;entryDy=0;entryPerimeter=0;" edge="1" parent="1" source="0K9RgCL--q_GSFUfKGMx-4" target="0K9RgCL--q_GSFUfKGMx-1">
          <mxGeometry relative="1" as="geometry" />
        </mxCell>
        <mxCell id="0K9RgCL--q_GSFUfKGMx-7" style="edgeStyle=orthogonalEdgeStyle;rounded=0;orthogonalLoop=1;jettySize=auto;html=1;exitX=0.5;exitY=0;exitDx=0;exitDy=0;exitPerimeter=0;entryX=1;entryY=1;entryDx=0;entryDy=0;entryPerimeter=0;" edge="1" parent="1" source="0K9RgCL--q_GSFUfKGMx-5" target="0K9RgCL--q_GSFUfKGMx-1">
          <mxGeometry relative="1" as="geometry" />
        </mxCell>
        <mxCell id="0K9RgCL--q_GSFUfKGMx-9" style="edgeStyle=orthogonalEdgeStyle;rounded=0;orthogonalLoop=1;jettySize=auto;html=1;exitX=0;exitY=0;exitDx=30;exitDy=0;exitPerimeter=0;entryX=0.5;entryY=1;entryDx=0;entryDy=0;entryPerimeter=0;" edge="1" parent="1" source="0K9RgCL--q_GSFUfKGMx-2" target="0K9RgCL--q_GSFUfKGMx-4">
          <mxGeometry relative="1" as="geometry" />
        </mxCell>
      </root>
    </mxGraphModel>
  </diagram>
</mxfile>
